<svg width="51" height="51" viewBox="0 0 51 51" fill="none" xmlns="http://www.w3.org/2000/svg">
<path fill-rule="evenodd" clip-rule="evenodd" d="M14.3176 25.3155C14.7041 25.9485 15.3859 26.3336 16.12 26.3335H24.6969V36.3334H20.244C19.7838 36.3334 19.4107 36.7064 19.4107 37.1667C19.4107 37.6269 19.7838 38 20.244 38H30.7928C31.253 38 31.6261 37.6269 31.6261 37.1667C31.6261 36.7064 31.253 36.3334 30.7928 36.3334H26.3399V26.3335H34.9168C35.6459 26.3208 36.3174 25.9288 36.6945 25.2958C37.0716 24.6627 37.1015 23.8775 36.7735 23.2168L32.6658 14.8086C32.122 13.6985 31.0043 12.9976 29.7822 13.0003H21.2546C20.0159 12.9832 18.8779 13.69 18.3299 14.8169L14.2222 23.2252C13.895 23.8917 13.9311 24.6825 14.3176 25.3155ZM19.8333 15.5586C20.1002 15.0103 20.6518 14.6643 21.2546 14.667H29.7822C30.3968 14.6513 30.9643 14.9993 31.2363 15.5586L35.344 23.9668C35.4182 24.1169 35.4103 24.2952 35.3232 24.4379C35.2362 24.5806 35.0823 24.6673 34.9168 24.6668H16.0871C15.9216 24.6673 15.7678 24.5806 15.6807 24.4379C15.5936 24.2952 15.5857 24.1169 15.6599 23.9668L19.8333 15.5586Z" fill="#8290B0"/>
<path d="M16.12 26.3335V26.2335H16.12L16.12 26.3335ZM14.3176 25.3155L14.4029 25.2634L14.3176 25.3155ZM24.6969 26.3335H24.7969V26.2335H24.6969V26.3335ZM24.6969 36.3334V36.4334H24.7969V36.3334H24.6969ZM26.3399 36.3334H26.2399V36.4334H26.3399V36.3334ZM26.3399 26.3335V26.2335H26.2399V26.3335H26.3399ZM34.9168 26.3335V26.4335L34.9186 26.4335L34.9168 26.3335ZM36.7735 23.2168L36.6837 23.2607L36.684 23.2613L36.7735 23.2168ZM32.6658 14.8086L32.7557 14.7647L32.7556 14.7646L32.6658 14.8086ZM29.7822 13.0003V13.1003L29.7824 13.1003L29.7822 13.0003ZM21.2546 13.0003L21.2532 13.1003H21.2546V13.0003ZM18.3299 14.8169L18.4198 14.8608L18.4198 14.8607L18.3299 14.8169ZM14.2222 23.2252L14.312 23.2692L14.3121 23.2691L14.2222 23.2252ZM21.2546 14.667L21.2542 14.767H21.2546V14.667ZM19.8333 15.5586L19.9229 15.6031L19.9233 15.6024L19.8333 15.5586ZM29.7822 14.667V14.767L29.7847 14.7669L29.7822 14.667ZM31.2363 15.5586L31.1464 15.6023L31.1465 15.6025L31.2363 15.5586ZM35.344 23.9668L35.2542 24.0107L35.2544 24.0112L35.344 23.9668ZM34.9168 24.6668L34.9171 24.5668H34.9168V24.6668ZM16.0871 24.6668V24.5668L16.0868 24.5668L16.0871 24.6668ZM15.6807 24.4379L15.7661 24.3858L15.6807 24.4379ZM15.6599 23.9668L15.5703 23.9224L15.5703 23.9225L15.6599 23.9668ZM16.12 26.2335C15.4212 26.2336 14.7715 25.867 14.4029 25.2634L14.2322 25.3676C14.6366 26.03 15.3506 26.4336 16.12 26.4335L16.12 26.2335ZM24.6969 26.2335H16.12V26.4335H24.6969V26.2335ZM24.7969 36.3334V26.3335H24.5969V36.3334H24.7969ZM20.244 36.4334H24.6969V36.2334H20.244V36.4334ZM19.5107 37.1667C19.5107 36.7617 19.839 36.4334 20.244 36.4334V36.2334C19.7286 36.2334 19.3107 36.6512 19.3107 37.1667H19.5107ZM20.244 37.9C19.839 37.9 19.5107 37.5717 19.5107 37.1667H19.3107C19.3107 37.6821 19.7286 38.1 20.244 38.1V37.9ZM30.7928 37.9H20.244V38.1H30.7928V37.9ZM31.5261 37.1667C31.5261 37.5717 31.1978 37.9 30.7928 37.9V38.1C31.3082 38.1 31.7261 37.6821 31.7261 37.1667H31.5261ZM30.7928 36.4334C31.1978 36.4334 31.5261 36.7617 31.5261 37.1667H31.7261C31.7261 36.6512 31.3083 36.2334 30.7928 36.2334V36.4334ZM26.3399 36.4334H30.7928V36.2334H26.3399V36.4334ZM26.2399 26.3335V36.3334H26.4399V26.3335H26.2399ZM34.9168 26.2335H26.3399V26.4335H34.9168V26.2335ZM36.6086 25.2446C36.249 25.8483 35.6091 26.2214 34.9151 26.2335L34.9186 26.4335C35.6827 26.4201 36.3858 26.0093 36.7804 25.3469L36.6086 25.2446ZM36.684 23.2613C36.9968 23.8915 36.9683 24.6407 36.6086 25.2446L36.7804 25.3469C37.175 24.6847 37.2061 23.8634 36.8631 23.1724L36.684 23.2613ZM32.576 14.8525L36.6837 23.2607L36.8634 23.173L32.7557 14.7647L32.576 14.8525ZM29.7824 13.1003C30.9657 13.0977 32.0488 13.7764 32.576 14.8526L32.7556 14.7646C32.1952 13.6207 31.0429 12.8975 29.782 12.9003L29.7824 13.1003ZM21.2546 13.1003H29.7822V12.9003H21.2546V13.1003ZM18.4198 14.8607C18.9511 13.7681 20.0539 13.0837 21.2532 13.1003L21.256 12.9003C19.978 12.8826 18.8047 13.6119 18.24 14.7732L18.4198 14.8607ZM14.3121 23.2691L18.4198 14.8608L18.2401 14.7731L14.1324 23.1813L14.3121 23.2691ZM14.4029 25.2634C14.0343 24.6596 13.9998 23.9051 14.312 23.2692L14.1324 23.1811C13.7902 23.8783 13.8279 24.7054 14.2322 25.3676L14.4029 25.2634ZM21.255 14.567C20.6133 14.5641 20.0269 14.9325 19.7434 15.5148L19.9233 15.6024C20.1736 15.0881 20.6903 14.7645 21.2542 14.767L21.255 14.567ZM29.7822 14.567H21.2546V14.767H29.7822V14.567ZM31.3263 15.5149C31.0374 14.9209 30.434 14.5503 29.7797 14.567L29.7847 14.7669C30.3596 14.7523 30.8913 15.0778 31.1464 15.6023L31.3263 15.5149ZM35.4339 23.9229L31.3262 15.5147L31.1465 15.6025L35.2542 24.0107L35.4339 23.9229ZM35.4086 24.49C35.5136 24.318 35.523 24.1033 35.4337 23.9225L35.2544 24.0112C35.3134 24.1305 35.3071 24.2724 35.2379 24.3858L35.4086 24.49ZM34.9166 24.7668C35.1174 24.7674 35.3035 24.6622 35.4086 24.49L35.2379 24.3858C35.1688 24.4991 35.0472 24.5672 34.9171 24.5668L34.9166 24.7668ZM16.0871 24.7668H34.9168V24.5668H16.0871V24.7668ZM15.5953 24.49C15.7004 24.6622 15.8865 24.7674 16.0874 24.7668L16.0868 24.5668C15.9568 24.5672 15.8352 24.4991 15.7661 24.3858L15.5953 24.49ZM15.5703 23.9225C15.4809 24.1033 15.4904 24.318 15.5953 24.49L15.7661 24.3858C15.6969 24.2724 15.6906 24.1305 15.7495 24.0112L15.5703 23.9225ZM19.7438 15.5141L15.5703 23.9224L15.7495 24.0113L19.9229 15.6031L19.7438 15.5141Z" fill="#8290B0"/>
</svg>
