<svg width="51" height="51" viewBox="0 0 51 51" fill="none" xmlns="http://www.w3.org/2000/svg">
<path d="M32.35 17.2C30.8367 17.2 29.6 18.4367 29.6 19.95C29.6 21.4634 30.8367 22.7 32.35 22.7C33.8634 22.7 35.1 21.4634 35.1 19.95C35.1 18.4367 33.8634 17.2 32.35 17.2Z" stroke="#8290B0" stroke-width="1.4"/>
<path d="M22.3895 15.6492C20.2693 15.6492 18.5395 17.379 18.5395 19.4992C18.5395 21.6194 20.2693 23.3492 22.3895 23.3492C24.5097 23.3492 26.2395 21.6194 26.2395 19.4992C26.2395 17.379 24.5097 15.6492 22.3895 15.6492Z" stroke="#8290B0" stroke-width="1.6"/>
<path fill-rule="evenodd" clip-rule="evenodd" d="M38.8275 34.166V29.4178C38.8275 28.0753 38.0495 26.8037 36.6937 25.8612C35.3403 24.9203 33.4907 24.3806 31.5275 24.3806C29.5643 24.3806 27.7148 24.9203 26.3613 25.8612C26.2493 25.939 26.0373 26.1013 26.0373 26.1013L27.316 26.9065C27.2632 26.9406 27.2113 26.9753 27.1604 27.0107C27.073 27.0715 26.909 27.1967 26.909 27.1967L28.4964 27.6498L31.0747 29.2733L31.6812 34.166H38.8275ZM28.4964 27.6498L30.8289 28.3156L32.3185 32.766H37.4275V29.4178C37.4275 28.5732 36.8986 27.7086 35.8946 27.0107C34.7841 26.2388 33.2141 25.7806 31.5275 25.7806C29.9183 25.7806 28.4151 26.1977 27.316 26.9065L28.4964 27.6498Z" fill="#8290B0"/>
<path d="M22.4336 26C25.1294 26 27.5491 26.6402 29.2467 27.6378C30.9443 28.6354 31.8672 29.9284 31.8672 31.2409V36.1324H13V31.2409C13 29.9284 13.9228 28.6354 15.6204 27.6378C17.318 26.6402 19.7377 26 22.4336 26V26Z" stroke="#8290B0" stroke-width="1.6"/>
<path fill-rule="evenodd" clip-rule="evenodd" d="M29.1073 26.6412C29.1073 26.6412 28.4625 26.3595 27.916 26.1299C27.4895 25.9507 26.5013 25.6962 26.5013 25.6962L28.4714 24.6968L30.8289 26L29.1073 26.6412Z" fill="#1F2124"/>
<rect x="32.667" y="32.4364" width="1.39757" height="2" fill="#1F2124"/>
</svg>
