<svg width="51" height="51" viewBox="0 0 51 51" fill="none" xmlns="http://www.w3.org/2000/svg">
<path d="M25.397 37.7296L26.0312 37.1636L26.0312 37.1636L25.397 37.7296ZM26.603 37.7296L25.9688 37.1636L25.9688 37.1636L26.603 37.7296ZM35 22.054H35.85V22.054L35 22.054ZM26 12.15C20.5631 12.15 16.15 16.597 16.15 22.054H17.85C17.85 17.5263 21.5116 13.85 26 13.85V12.15ZM16.15 22.054C16.15 23.7711 16.7036 25.6258 17.4857 27.4052C18.2724 29.1949 19.3176 30.9691 20.3619 32.5414C22.4503 35.686 24.5795 38.0901 24.7629 38.2956L26.0312 37.1636C25.8717 36.9849 23.8024 34.6491 21.778 31.6009C20.7658 30.0768 19.7761 28.3913 19.042 26.7211C18.3032 25.0404 17.85 23.4347 17.85 22.054H16.15ZM24.7629 38.2956C25.4233 39.0356 26.5781 39.0341 27.2371 38.2955L25.9688 37.1636C25.9849 37.1456 26.0149 37.1453 26.0312 37.1636L24.7629 38.2956ZM27.2371 38.2956C27.4205 38.0901 29.5497 35.686 31.6381 32.5414C32.6824 30.9691 33.7276 29.1949 34.5143 27.4052C35.2964 25.6258 35.85 23.7711 35.85 22.054H34.15C34.15 23.4347 33.6968 25.0404 32.958 26.7211C32.2239 28.3913 31.2342 30.0768 30.222 31.6009C28.1976 34.6491 26.1283 36.9849 25.9688 37.1636L27.2371 38.2956ZM35.85 22.054C35.8499 16.597 31.4368 12.15 26 12.15V13.85C30.4883 13.85 34.1499 17.5263 34.15 22.054L35.85 22.054ZM26 25.7593C23.9774 25.7593 22.3219 24.1012 22.3219 22.054H20.6219C20.6219 25.0305 23.0289 27.4593 26 27.4593V25.7593ZM22.3219 22.054C22.3219 20.0068 23.9775 18.3487 26 18.3487V16.6487C23.029 16.6487 20.6219 19.0776 20.6219 22.054H22.3219ZM26 18.3487C28.0225 18.3487 29.678 20.0069 29.678 22.0541H31.378C31.378 19.0776 28.971 16.6487 26 16.6487V18.3487ZM29.678 22.0541C29.678 24.1013 28.0225 25.7593 26 25.7593V27.4593C28.971 27.4593 31.378 25.0305 31.378 22.0541H29.678Z" fill="#8290B0"/>
</svg>
