<svg width="51" height="51" viewBox="0 0 51 51" fill="none" xmlns="http://www.w3.org/2000/svg">
<path fill-rule="evenodd" clip-rule="evenodd" d="M36.4513 18.8877C36.5918 25.6625 36.7571 34.9307 25.5218 38.8237C25.3755 38.8745 25.2163 38.8745 25.07 38.8237C13.8347 34.9279 14 25.6625 14.1378 18.8877C14.1653 18.1576 14.1653 17.4551 14.1653 16.7801C14.1653 16.3997 14.4737 16.0913 14.8541 16.0913C19.0088 16.0913 22.1716 14.8928 24.8138 12.3251C25.0813 12.0644 25.5078 12.0644 25.7753 12.3251C28.4175 14.8956 31.5803 16.0913 35.735 16.0913C36.1154 16.0913 36.4238 16.3997 36.4238 16.7801C36.4238 17.4159 36.436 18.0688 36.4489 18.7595L36.4513 18.8877ZM15.5315 18.0478C15.5248 18.3336 15.5181 18.6238 15.5181 18.9208C15.3776 25.5689 15.2343 33.8314 25.2959 37.4461C35.352 33.8342 35.2033 25.5716 35.0765 18.9236C35.0745 18.8288 35.0723 18.7346 35.0701 18.6409C35.0608 18.2393 35.0517 17.8482 35.0517 17.4661C31.0816 17.3504 27.9601 16.1574 25.2959 13.7688C22.6317 16.1574 19.5102 17.3449 15.5429 17.4634C15.5406 17.6565 15.5361 17.8511 15.5315 18.0478Z" fill="#8290B0"/>
<path d="M25.5218 38.8237L25.4564 38.6347L25.4562 38.6347L25.5218 38.8237ZM36.4513 18.8877L36.2514 18.8915L36.2514 18.8919L36.4513 18.8877ZM25.07 38.8237L25.1356 38.6347L25.1355 38.6347L25.07 38.8237ZM14.1378 18.8877L13.9379 18.8802L13.9378 18.8837L14.1378 18.8877ZM24.8138 12.3251L24.9532 12.4685L24.9534 12.4683L24.8138 12.3251ZM25.7753 12.3251L25.6357 12.4683L25.6358 12.4684L25.7753 12.3251ZM36.4489 18.7595L36.6489 18.7558V18.7558L36.4489 18.7595ZM15.5181 18.9208L15.7181 18.925V18.9208H15.5181ZM15.5315 18.0478L15.7314 18.0524V18.0524L15.5315 18.0478ZM25.2959 37.4461L25.2283 37.6343L25.2959 37.6586L25.3635 37.6343L25.2959 37.4461ZM35.0765 18.9236L35.2765 18.9197L35.2765 18.9192L35.0765 18.9236ZM35.0701 18.6409L35.27 18.6363V18.6363L35.0701 18.6409ZM35.0517 17.4661H35.2517V17.2719L35.0576 17.2662L35.0517 17.4661ZM25.2959 13.7688L25.4294 13.6199L25.2959 13.5001L25.1624 13.6199L25.2959 13.7688ZM15.5429 17.4634L15.5369 17.2634L15.3451 17.2692L15.3429 17.461L15.5429 17.4634ZM25.5873 39.0126C31.2607 37.0469 34.0736 33.7132 35.4402 30.0056C36.8009 26.3139 36.7214 22.2651 36.6513 18.8836L36.2514 18.8919C36.3218 22.2852 36.3952 26.2578 35.0649 29.8672C33.7404 33.4606 31.0183 36.7075 25.4564 38.6347L25.5873 39.0126ZM25.0044 39.0126C25.1932 39.0782 25.3986 39.0782 25.5874 39.0126L25.4562 38.6347C25.3524 38.6708 25.2394 38.6708 25.1356 38.6347L25.0044 39.0126ZM13.9378 18.8837C13.869 22.2651 13.7903 26.3133 15.1513 30.0045C16.5182 33.7118 19.3311 37.0455 25.0045 39.0126L25.1355 38.6347C19.5736 36.7062 16.8515 33.4592 15.5266 29.8662C14.1959 26.2571 14.2687 22.2852 14.3377 18.8918L13.9378 18.8837ZM13.9653 16.7801C13.9653 17.4556 13.9653 18.1544 13.9379 18.8802L14.3376 18.8953C14.3653 18.1608 14.3653 17.4546 14.3653 16.7801H13.9653ZM14.8541 15.8913C14.3632 15.8913 13.9653 16.2892 13.9653 16.7801H14.3653C14.3653 16.5101 14.5841 16.2913 14.8541 16.2913V15.8913ZM24.6744 12.1817C22.0744 14.7085 18.9638 15.8913 14.8541 15.8913V16.2913C19.0538 16.2913 22.2689 15.0772 24.9532 12.4685L24.6744 12.1817ZM25.9149 12.1819C25.5698 11.8454 25.0193 11.8454 24.6742 12.1819L24.9534 12.4683C25.1432 12.2833 25.4459 12.2833 25.6357 12.4683L25.9149 12.1819ZM35.735 15.8913C31.6252 15.8913 28.5147 14.7112 25.9148 12.1817L25.6358 12.4684C28.3202 15.08 31.5354 16.2913 35.735 16.2913V15.8913ZM36.6238 16.7801C36.6238 16.2892 36.2259 15.8913 35.735 15.8913V16.2913C36.0049 16.2913 36.2238 16.5101 36.2238 16.7801H36.6238ZM36.6489 18.7558C36.636 18.0647 36.6238 17.4137 36.6238 16.7801H36.2238C36.2238 17.4181 36.236 18.0729 36.249 18.7633L36.6489 18.7558ZM36.6513 18.884L36.6489 18.7558L36.249 18.7633L36.2514 18.8915L36.6513 18.884ZM15.7181 18.9208C15.7181 18.6265 15.7248 18.3386 15.7314 18.0524L15.3315 18.0431C15.3249 18.3286 15.3181 18.6211 15.3181 18.9208H15.7181ZM25.3635 37.2579C20.3877 35.4703 17.9531 32.5444 16.7694 29.2533C15.5797 25.9455 15.6476 22.2557 15.718 18.925L15.3181 18.9166C15.248 22.234 15.174 25.9995 16.393 29.3887C17.6179 32.7945 20.1425 35.8072 25.2283 37.6343L25.3635 37.2579ZM34.8766 18.9274C34.9401 22.2583 35.006 25.9481 33.8166 29.2557C32.6332 32.5466 30.2013 35.4717 25.2283 37.2579L25.3635 37.6343C30.4466 35.8086 32.9684 32.7965 34.193 29.3911C35.4116 26.0024 35.3397 22.2369 35.2765 18.9197L34.8766 18.9274ZM34.8702 18.6455C34.8723 18.7392 34.8745 18.8333 34.8766 18.928L35.2765 18.9192C35.2744 18.8242 35.2722 18.7299 35.27 18.6363L34.8702 18.6455ZM34.8517 17.4661C34.8517 17.8509 34.8609 18.2443 34.8702 18.6455L35.27 18.6363C35.2607 18.2342 35.2517 17.8454 35.2517 17.4661H34.8517ZM25.1624 13.9177C27.8653 16.3411 31.0335 17.5491 35.0459 17.666L35.0576 17.2662C31.1297 17.1517 28.0549 15.9738 25.4294 13.6199L25.1624 13.9177ZM15.5488 17.6633C19.5582 17.5435 22.7264 16.3412 25.4294 13.9177L25.1624 13.6199C22.5371 15.9737 19.4623 17.1462 15.5369 17.2634L15.5488 17.6633ZM15.7314 18.0524C15.736 17.856 15.7406 17.6602 15.7428 17.4657L15.3429 17.461C15.3406 17.6529 15.3361 17.8462 15.3315 18.0431L15.7314 18.0524Z" fill="#8290B0"/>
<path fill-rule="evenodd" clip-rule="evenodd" d="M28.1309 27.919C28.3426 28.4888 28.0529 29.1224 27.4835 29.3351C26.0788 29.8848 24.5185 29.8848 23.1139 29.3351H23.1111C22.5432 29.1224 22.2538 28.4908 22.4637 27.9217L23.3233 25.5C22.9313 25.0383 22.7156 24.4526 22.7144 23.8469C22.7117 22.4969 23.7497 21.3728 25.0956 21.2681C26.4415 21.1633 27.6409 22.1133 27.8471 23.4475C27.9613 24.1832 27.7502 24.9322 27.2686 25.5L28.1309 27.919ZM24.1614 23.4357C23.9931 23.9199 24.1499 24.4575 24.552 24.7754H24.5493C24.7792 24.9584 24.8677 25.2671 24.7697 25.5441L23.8495 28.1339C24.7897 28.4443 25.8049 28.4443 26.7451 28.1339L25.8249 25.5441C25.7269 25.2671 25.8154 24.9584 26.0453 24.7754C26.4474 24.4575 26.6042 23.9199 26.4359 23.4357C26.2677 22.9515 25.8113 22.6269 25.2987 22.6269C24.7861 22.6269 24.3297 22.9515 24.1614 23.4357Z" fill="#8290B0"/>
<path d="M27.4835 29.3351L27.466 29.2883L27.4653 29.2885L27.4835 29.3351ZM28.1309 27.919L28.0838 27.9358L28.0841 27.9364L28.1309 27.919ZM23.1139 29.3351L23.1321 29.2885L23.1233 29.2851H23.1139V29.3351ZM23.1111 29.3351L23.0936 29.3819L23.1021 29.3851H23.1111V29.3351ZM22.4637 27.9217L22.5106 27.939L22.5108 27.9385L22.4637 27.9217ZM23.3233 25.5L23.3704 25.5167L23.38 25.4896L23.3614 25.4677L23.3233 25.5ZM22.7144 23.8469L22.6644 23.847V23.847L22.7144 23.8469ZM25.0956 21.2681L25.0917 21.2182L25.0956 21.2681ZM27.8471 23.4475L27.7977 23.4551L27.7977 23.4551L27.8471 23.4475ZM27.2686 25.5L27.2304 25.4677L27.2118 25.4896L27.2215 25.5168L27.2686 25.5ZM24.552 24.7754V24.8254H24.6959L24.5831 24.7362L24.552 24.7754ZM24.1614 23.4357L24.1142 23.4193L24.1614 23.4357ZM24.5493 24.7754V24.7254H24.4062L24.5182 24.8145L24.5493 24.7754ZM24.7697 25.5441L24.8168 25.5608L24.8168 25.5608L24.7697 25.5441ZM23.8495 28.1339L23.8024 28.1171L23.7853 28.1653L23.8338 28.1814L23.8495 28.1339ZM26.7451 28.1339L26.7608 28.1814L26.8093 28.1653L26.7922 28.1171L26.7451 28.1339ZM25.8249 25.5441L25.7778 25.5608L25.7778 25.5608L25.8249 25.5441ZM26.0453 24.7754L26.0143 24.7362L26.0142 24.7363L26.0453 24.7754ZM26.4359 23.4357L26.4832 23.4193L26.4359 23.4357ZM27.501 29.3819C28.0962 29.1596 28.3991 28.4972 28.1778 27.9016L28.0841 27.9364C28.2861 28.4804 28.0096 29.0852 27.466 29.2883L27.501 29.3819ZM23.0957 29.3817C24.512 29.936 26.0853 29.936 27.5017 29.3817L27.4653 29.2885C26.0723 29.8337 24.5251 29.8337 23.1321 29.2885L23.0957 29.3817ZM23.1111 29.3851H23.1139V29.2851H23.1111V29.3851ZM22.4168 27.9044C22.1974 28.4993 22.4999 29.1596 23.0936 29.3819L23.1287 29.2883C22.5865 29.0852 22.3103 28.4822 22.5106 27.939L22.4168 27.9044ZM23.2762 25.4833L22.4166 27.905L22.5108 27.9385L23.3704 25.5167L23.2762 25.4833ZM22.6644 23.847C22.6656 24.4645 22.8855 25.0616 23.2852 25.5324L23.3614 25.4677C22.9771 25.0149 22.7656 24.4407 22.7644 23.8468L22.6644 23.847ZM25.0917 21.2182C23.7197 21.325 22.6617 22.4709 22.6644 23.847L22.7644 23.8468C22.7618 22.523 23.7796 21.4207 25.0995 21.3179L25.0917 21.2182ZM27.8966 23.4398C27.6863 22.0798 26.4637 21.1114 25.0917 21.2182L25.0995 21.3179C26.4194 21.2152 27.5955 22.1468 27.7977 23.4551L27.8966 23.4398ZM27.3067 25.5324C27.7977 24.9535 28.013 24.1899 27.8966 23.4398L27.7977 23.4551C27.9097 24.1765 27.7027 24.9109 27.2304 25.4677L27.3067 25.5324ZM28.178 27.9022L27.3157 25.4832L27.2215 25.5168L28.0838 27.9358L28.178 27.9022ZM24.5831 24.7362C24.1976 24.4315 24.0474 23.9162 24.2086 23.4521L24.1142 23.4193C23.9389 23.9236 24.1022 24.4836 24.521 24.8146L24.5831 24.7362ZM24.5493 24.8254H24.552V24.7254H24.5493V24.8254ZM24.8168 25.5608C24.922 25.2637 24.827 24.9326 24.5804 24.7363L24.5182 24.8145C24.7314 24.9842 24.8135 25.2705 24.7226 25.5274L24.8168 25.5608ZM23.8966 28.1506L24.8168 25.5608L24.7226 25.5273L23.8024 28.1171L23.8966 28.1506ZM26.7294 28.0864C25.7994 28.3935 24.7952 28.3935 23.8652 28.0864L23.8338 28.1814C24.7842 28.4952 25.8104 28.4952 26.7608 28.1814L26.7294 28.0864ZM25.7778 25.5608L26.698 28.1506L26.7922 28.1171L25.872 25.5273L25.7778 25.5608ZM26.0142 24.7363C25.7676 24.9326 25.6726 25.2637 25.7778 25.5608L25.872 25.5274C25.7811 25.2705 25.8632 24.9842 26.0764 24.8145L26.0142 24.7363ZM26.3887 23.4521C26.55 23.9162 26.3997 24.4315 26.0143 24.7362L26.0763 24.8146C26.4952 24.4836 26.6584 23.9236 26.4832 23.4193L26.3887 23.4521ZM25.2987 22.6769C25.79 22.6769 26.2274 22.988 26.3887 23.4521L26.4832 23.4193C26.3079 22.915 25.8326 22.5769 25.2987 22.5769V22.6769ZM24.2086 23.4521C24.3699 22.988 24.8074 22.6769 25.2987 22.6769V22.5769C24.7648 22.5769 24.2894 22.915 24.1142 23.4193L24.2086 23.4521Z" fill="#8290B0"/>
</svg>
