<svg width="51" height="51" viewBox="0 0 51 51" fill="none" xmlns="http://www.w3.org/2000/svg">
<mask id="path-1-inside-1_0_729" fill="white">
<path fill-rule="evenodd" clip-rule="evenodd" d="M32.5 14.5V36.1047H34.5V14.5H32.5ZM31.9881 13C31.4424 13 31 13.4424 31 13.9881V36.6166C31 37.1623 31.4424 37.6047 31.9881 37.6047H35.0119C35.5576 37.6047 36 37.1623 36 36.6166V13.9881C36 13.4424 35.5576 13 35.0119 13H31.9881ZM27.5119 18.4407H24.4881C24.2185 18.4407 24 18.6593 24 18.9289V36.6166C24 36.8862 24.2185 37.1047 24.4881 37.1047H27.5119C27.7815 37.1047 28 36.8862 28 36.6166V18.9289C28 18.6593 27.7815 18.4407 27.5119 18.4407ZM24.4881 17.9407C23.9424 17.9407 23.5 18.3831 23.5 18.9289V36.6166C23.5 37.1623 23.9424 37.6047 24.4881 37.6047H27.5119C28.0576 37.6047 28.5 37.1623 28.5 36.6166V18.9289C28.5 18.3831 28.0576 17.9407 27.5119 17.9407H24.4881ZM16.9881 25.753H20.0119C20.2815 25.753 20.5 25.9715 20.5 26.2411V37.0119C20.5 37.2815 20.2815 37.5 20.0119 37.5H16.9881C16.7185 37.5 16.5 37.2815 16.5 37.0119V26.2411C16.5 25.9715 16.7185 25.753 16.9881 25.753ZM16 26.2411C16 25.6954 16.4424 25.253 16.9881 25.253H20.0119C20.5576 25.253 21 25.6954 21 26.2411V37.0119C21 37.5576 20.5576 38 20.0119 38H16.9881C16.4424 38 16 37.5576 16 37.0119V26.2411Z"/>
</mask>
<path d="M32.5 36.1047H31.1V37.5047H32.5V36.1047ZM32.5 14.5V13.1H31.1V14.5H32.5ZM34.5 36.1047V37.5047H35.9V36.1047H34.5ZM34.5 14.5H35.9V13.1H34.5V14.5ZM33.9 36.1047V14.5H31.1V36.1047H33.9ZM34.5 34.7047H32.5V37.5047H34.5V34.7047ZM33.1 14.5V36.1047H35.9V14.5H33.1ZM32.5 15.9H34.5V13.1H32.5V15.9ZM32.4 13.9881C32.4 14.2156 32.2156 14.4 31.9881 14.4V11.6C30.6692 11.6 29.6 12.6692 29.6 13.9881H32.4ZM32.4 36.6166V13.9881H29.6V36.6166H32.4ZM31.9881 36.2047C32.2156 36.2047 32.4 36.3891 32.4 36.6166H29.6C29.6 37.9355 30.6692 39.0047 31.9881 39.0047V36.2047ZM35.0119 36.2047H31.9881V39.0047H35.0119V36.2047ZM34.6 36.6166C34.6 36.3891 34.7844 36.2047 35.0119 36.2047V39.0047C36.3308 39.0047 37.4 37.9355 37.4 36.6166H34.6ZM34.6 13.9881V36.6166H37.4V13.9881H34.6ZM35.0119 14.4C34.7844 14.4 34.6 14.2156 34.6 13.9881H37.4C37.4 12.6692 36.3308 11.6 35.0119 11.6V14.4ZM31.9881 14.4H35.0119V11.6H31.9881V14.4ZM24.4881 19.8407H27.5119V17.0407H24.4881V19.8407ZM25.4 18.9289C25.4 19.4325 24.9917 19.8407 24.4881 19.8407V17.0407C23.4454 17.0407 22.6 17.8861 22.6 18.9289H25.4ZM25.4 36.6166V18.9289H22.6V36.6166H25.4ZM24.4881 35.7047C24.9917 35.7047 25.4 36.113 25.4 36.6166H22.6C22.6 37.6594 23.4453 38.5047 24.4881 38.5047V35.7047ZM27.5119 35.7047H24.4881V38.5047H27.5119V35.7047ZM26.6 36.6166C26.6 36.113 27.0083 35.7047 27.5119 35.7047V38.5047C28.5546 38.5047 29.4 37.6594 29.4 36.6166H26.6ZM26.6 18.9289V36.6166H29.4V18.9289H26.6ZM27.5119 19.8407C27.0083 19.8407 26.6 19.4325 26.6 18.9289H29.4C29.4 17.8861 28.5547 17.0407 27.5119 17.0407V19.8407ZM24.9 18.9289C24.9 19.1563 24.7156 19.3407 24.4881 19.3407V16.5407C23.1692 16.5407 22.1 17.6099 22.1 18.9289H24.9ZM24.9 36.6166V18.9289H22.1V36.6166H24.9ZM24.4881 36.2047C24.7156 36.2047 24.9 36.3891 24.9 36.6166H22.1C22.1 37.9355 23.1692 39.0047 24.4881 39.0047V36.2047ZM27.5119 36.2047H24.4881V39.0047H27.5119V36.2047ZM27.1 36.6166C27.1 36.3891 27.2844 36.2047 27.5119 36.2047V39.0047C28.8308 39.0047 29.9 37.9355 29.9 36.6166H27.1ZM27.1 18.9289V36.6166H29.9V18.9289H27.1ZM27.5119 19.3407C27.2844 19.3407 27.1 19.1563 27.1 18.9289H29.9C29.9 17.6099 28.8308 16.5407 27.5119 16.5407V19.3407ZM24.4881 19.3407H27.5119V16.5407H24.4881V19.3407ZM20.0119 24.353H16.9881V27.153H20.0119V24.353ZM21.9 26.2411C21.9 25.1983 21.0546 24.353 20.0119 24.353V27.153C19.5083 27.153 19.1 26.7447 19.1 26.2411H21.9ZM21.9 37.0119V26.2411H19.1V37.0119H21.9ZM20.0119 38.9C21.0546 38.9 21.9 38.0547 21.9 37.0119H19.1C19.1 36.5083 19.5083 36.1 20.0119 36.1V38.9ZM16.9881 38.9H20.0119V36.1H16.9881V38.9ZM15.1 37.0119C15.1 38.0547 15.9454 38.9 16.9881 38.9V36.1C17.4917 36.1 17.9 36.5083 17.9 37.0119H15.1ZM15.1 26.2411V37.0119H17.9V26.2411H15.1ZM16.9881 24.353C15.9454 24.353 15.1 25.1983 15.1 26.2411H17.9C17.9 26.7447 17.4917 27.153 16.9881 27.153V24.353ZM16.9881 23.853C15.6692 23.853 14.6 24.9222 14.6 26.2411H17.4C17.4 26.4686 17.2156 26.653 16.9881 26.653V23.853ZM20.0119 23.853H16.9881V26.653H20.0119V23.853ZM22.4 26.2411C22.4 24.9222 21.3308 23.853 20.0119 23.853V26.653C19.7844 26.653 19.6 26.4686 19.6 26.2411H22.4ZM22.4 37.0119V26.2411H19.6V37.0119H22.4ZM20.0119 39.4C21.3308 39.4 22.4 38.3308 22.4 37.0119H19.6C19.6 36.7844 19.7844 36.6 20.0119 36.6V39.4ZM16.9881 39.4H20.0119V36.6H16.9881V39.4ZM14.6 37.0119C14.6 38.3308 15.6692 39.4 16.9881 39.4V36.6C17.2156 36.6 17.4 36.7844 17.4 37.0119H14.6ZM14.6 26.2411V37.0119H17.4V26.2411H14.6Z" fill="#8290B0" mask="url(#path-1-inside-1_0_729)"/>
</svg>
